<?xml version="1.0" encoding="UTF-8" standalone="no"?>
<!-- Created with Sodipodi ("http://www.sodipodi.com/") -->

<svg
   xmlns:dc="http://purl.org/dc/elements/1.1/"
   xmlns:cc="http://creativecommons.org/ns#"
   xmlns:rdf="http://www.w3.org/1999/02/22-rdf-syntax-ns#"
   xmlns:svg="http://www.w3.org/2000/svg"
   xmlns="http://www.w3.org/2000/svg"
   xmlns:xlink="http://www.w3.org/1999/xlink"
   xmlns:sodipodi="http://sodipodi.sourceforge.net/DTD/sodipodi-0.dtd"
   xmlns:inkscape="http://www.inkscape.org/namespaces/inkscape"
   id="svg604"
   sodipodi:version="0.32"
   width="90"
   height="90"
   sodipodi:docname="basico-sap-security-note.svg"
   inkscape:version="0.92.3 (2405546, 2018-03-11)"
   inkscape:output_extension="org.inkscape.output.svg.inkscape"
   version="1.0">
  <metadata
     id="metadata11">
    <rdf:RDF>
      <cc:Work
         rdf:about="">
        <dc:format>image/svg+xml</dc:format>
        <dc:type
           rdf:resource="http://purl.org/dc/dcmitype/StillImage" />
        <dc:title />
      </cc:Work>
    </rdf:RDF>
  </metadata>
  <defs
     id="defs606">
    <linearGradient
       id="linearGradient612">
      <stop
         style="stop-color:#7fa8e3;stop-opacity:0.741176;"
         offset="0.000000"
         id="stop613" />
      <stop
         style="stop-color:#ffffff;stop-opacity:0;"
         offset="1.000000"
         id="stop614" />
    </linearGradient>
    <linearGradient
       xlink:href="#linearGradient612"
       id="linearGradient615"
       x1="50.643887"
       y1="5.3679295"
       x2="35.752094"
       y2="68.044357"
       gradientUnits="userSpaceOnUse"
       spreadMethod="pad"
       gradientTransform="matrix(0.960363,0,0,0.960363,3.8000346,-1.1561084)" />
    <linearGradient
       id="linearGradient1787">
      <stop
         offset="0.0000000"
         style="stop-color:#ffcbcb;stop-opacity:1.0000000;"
         id="stop1789" />
      <stop
         offset="1.0000000"
         style="stop-color:#ea0800;stop-opacity:1.0000000;"
         id="stop1788" />
    </linearGradient>
  </defs>
  <sodipodi:namedview
     id="base"
     inkscape:zoom="5.0416667"
     inkscape:cx="-40.958677"
     inkscape:cy="39.173553"
     inkscape:window-width="1920"
     inkscape:window-height="1023"
     inkscape:window-x="0"
     inkscape:window-y="0"
     inkscape:current-layer="svg604"
     width="90px"
     height="90px"
     showgrid="false"
     inkscape:window-maximized="1" />
  <path
     sodipodi:nodetypes="ccccccccc"
     id="path2482"
     d="M 19.416214,89.01584 C 15.939429,88.964894 10.110646,86.840201 9.6017107,81.138563 7.8069683,75.377879 1.5678923,20.929626 4.5785153,17.13717 c 1.555623,-2.985761 4.943105,-5.177574 10.970045,-5.937399 4.931467,-0.755668 49.788686,-6.66132 53.096372,-5.744694 3.307779,0.916686 5.913399,1.691823 6.151347,6.289011 -0.244644,2.500159 8.087052,53.495894 9.365247,56.503073 0.609888,3.522348 -0.391272,8.444622 -5.491791,10.066068 -5.100426,1.621422 -55.227159,10.014423 -59.253522,10.702611 z"
     style="fill:#000000;fill-opacity:0.29411765;fill-rule:evenodd;stroke:none" />
  <path
     style="fill:#3d4e67;fill-opacity:1;fill-rule:evenodd;stroke:none"
     d="M 23.184808,84.453857 C 19.708023,84.402911 13.87924,82.278218 13.370305,76.57658 11.575563,70.815896 5.3364866,16.367643 8.3471096,12.575187 c 1.555623,-2.985761 4.943105,-5.177574 10.970045,-5.937399 4.931467,-0.755668 49.788686,-6.66132 53.096372,-5.744694 3.307779,0.916686 5.913399,1.691823 6.151347,6.289011 -0.244644,2.500159 8.087052,53.495894 9.365247,56.503073 0.609888,3.522348 -0.391272,8.444622 -5.491791,10.066068 -5.100426,1.621422 -55.227159,10.014423 -59.253522,10.702611 z"
     id="path609"
     sodipodi:nodetypes="ccccccccc" />
  <path
     style="fill:#ffffff;fill-opacity:1;fill-rule:evenodd;stroke:none"
     d="m 27.2015,78.414641 c -3.370771,0.445326 -8.052946,1.376295 -8.612214,-3.23562 -2.328863,-10.917573 -7.66852,-54.186478 -3.863764,-61.218126 0.849788,-1.653477 5.463624,-3.897846 15.944281,-4.834777 11.910182,-1.198786 36.348053,-3.021781 38.919716,-2.903362 2.57154,0.11845 3.358248,-0.172932 3.917595,4.439098 -0.227157,4.903329 7.530696,43.260487 7.989,50.051731 0.356604,4.821003 0.970305,6.869343 -2.176278,8.034831"
     id="path608"
     sodipodi:nodetypes="cccccccs" />
  <path
     style="fill:url(#linearGradient615);fill-opacity:1;fill-rule:evenodd;stroke:none"
     d="m 15.568817,20.490043 c 0,0 0.303158,-6.543044 9.029473,-7.846017 8.726287,-1.302935 43.2862,-5.743978 44.109667,-3.476689 0.823404,2.267274 1.842867,17.001758 2.097132,18.193742 0.254268,1.191936 -29.001252,11.385039 -37.03467,21.112812 -8.033445,9.727764 -13.65963,17.599314 -13.65963,17.599314 0,0 -4.600179,-34.307907 -4.541972,-45.583162 z"
     id="path636" />
  <ellipse
     ry="8.71381"
     rx="9.26721"
     cy="60.604996"
     cx="48.075233"
     style="fill:#000000;fill-opacity:0.3;fill-rule:evenodd;stroke:none;stroke-width:0.78423393pt;stroke-linecap:butt;stroke-linejoin:miter;stroke-opacity:1"
     id="path575" />
  <path
     inkscape:connector-curvature="0"
     style="fill:#000000;fill-opacity:0.3;fill-rule:evenodd;stroke:none;stroke-width:0.63382043pt;stroke-linecap:butt;stroke-linejoin:miter;stroke-opacity:1"
     d="m 42.227259,50.919487 5.537663,5.588696 8.452174,-2.216237 4.17755,-31.123189 -6.703495,-7.804939 -17.195839,1.445351 z"
     id="path574"
     sodipodi:nodetypes="ccccccc" />
  <path
     inkscape:connector-curvature="0"
     style="fill:#2c0000;fill-opacity:1;fill-rule:evenodd;stroke:none;stroke-width:0.63382043pt;stroke-linecap:butt;stroke-linejoin:miter;stroke-opacity:1"
     d="m 39.400718,49.666408 5.342218,5.435932 8.153865,-2.155655 4.030107,-30.272444 -6.466902,-7.591593 -16.588933,1.405842 z"
     id="path570"
     sodipodi:nodetypes="ccccccc" />
  <path
     inkscape:connector-curvature="0"
     style="fill:none;fill-opacity:1;fill-rule:evenodd;stroke:none;stroke-width:0.63382043pt;stroke-linecap:butt;stroke-linejoin:miter;stroke-opacity:1"
     d="m 50.834923,18.644122 3.373989,3.374 -3.467703,29.2416 -4.967366,1.312109 -3.186563,-3.561478 6.1857,-1.030908 z"
     id="path568" />
  <path
     inkscape:connector-curvature="0"
     style="fill:#7d0000;fill-opacity:1;fill-rule:evenodd;stroke:none;stroke-width:0.63382043pt;stroke-linecap:butt;stroke-linejoin:miter;stroke-opacity:1"
     d="m 49.710236,17.706883 -1.874451,29.710158 -5.904559,0.843608 3.561478,4.030044 5.248441,-1.030971 3.374053,-28.304405 z"
     id="path569"
     sodipodi:nodetypes="ccccccc" />
  <path
     inkscape:connector-curvature="0"
     style="fill:#ff1400;fill-opacity:1;fill-rule:evenodd;stroke:none;stroke-width:0.63382043pt;stroke-linecap:butt;stroke-linejoin:miter;stroke-opacity:1"
     d="m 37.338775,19.206474 4.779876,29.335313 5.998273,-0.809308 1.78074,-29.650701 z"
     id="path567"
     sodipodi:nodetypes="ccccc" />
  <ellipse
     ry="8.1514673"
     rx="8.3299732"
     cy="60.042622"
     cx="47.137993"
     style="fill:#2c0000;fill-opacity:1;fill-rule:evenodd;stroke:none;stroke-width:0.71912898pt;stroke-linecap:butt;stroke-linejoin:miter;stroke-opacity:1"
     id="path558" />
  <path
     inkscape:connector-curvature="0"
     style="font-size:12px;fill:#7d0000;fill-opacity:1;fill-rule:evenodd;stroke-width:0.63382043pt"
     d="m 53.325943,60.459212 c 0,3.153006 -2.532282,5.711961 -5.652393,5.711961 -3.120242,0 -5.652521,-2.558955 -5.652521,-5.711961 0,-3.153008 7.054285,-1.229116 5.652521,-5.711961 3.120111,0 5.652393,2.558953 5.652393,5.711961 z"
     id="path562"
     sodipodi:nodetypes="ccccc" />
  <path
     inkscape:connector-curvature="0"
     style="font-size:12px;fill:#ff1400;fill-opacity:1;fill-rule:evenodd;stroke-width:0.63382043pt"
     d="m 51.183962,59.626226 c 0,2.955933 -2.319035,5.354979 -5.176435,5.354979 -2.857462,0 -5.176497,-2.399046 -5.176497,-5.354979 0,-2.955934 2.319035,-5.354979 5.176497,-5.354979 2.8574,0 5.176435,2.399045 5.176435,5.354979 z"
     id="path561" />
</svg>
