<?xml version="1.0" encoding="UTF-8" standalone="no"?>
<!-- Created with Sodipodi ("http://www.sodipodi.com/") -->

<svg
   xmlns:dc="http://purl.org/dc/elements/1.1/"
   xmlns:cc="http://creativecommons.org/ns#"
   xmlns:rdf="http://www.w3.org/1999/02/22-rdf-syntax-ns#"
   xmlns:svg="http://www.w3.org/2000/svg"
   xmlns="http://www.w3.org/2000/svg"
   xmlns:xlink="http://www.w3.org/1999/xlink"
   xmlns:sodipodi="http://sodipodi.sourceforge.net/DTD/sodipodi-0.dtd"
   xmlns:inkscape="http://www.inkscape.org/namespaces/inkscape"
   id="svg604"
   sodipodi:version="0.32"
   width="90"
   height="90"
   sodipodi:docname="basico-sap-note.svg"
   inkscape:version="0.92.3 (2405546, 2018-03-11)"
   inkscape:output_extension="org.inkscape.output.svg.inkscape"
   version="1.0">
  <metadata
     id="metadata11">
    <rdf:RDF>
      <cc:Work
         rdf:about="">
        <dc:format>image/svg+xml</dc:format>
        <dc:type
           rdf:resource="http://purl.org/dc/dcmitype/StillImage" />
        <dc:title />
      </cc:Work>
    </rdf:RDF>
  </metadata>
  <defs
     id="defs606">
    <linearGradient
       id="linearGradient612">
      <stop
         style="stop-color:#7fa8e3;stop-opacity:0.741176;"
         offset="0.000000"
         id="stop613" />
      <stop
         style="stop-color:#ffffff;stop-opacity:0;"
         offset="1.000000"
         id="stop614" />
    </linearGradient>
    <linearGradient
       xlink:href="#linearGradient612"
       id="linearGradient615"
       x1="50.643887"
       y1="5.3679295"
       x2="35.752094"
       y2="68.044357"
       gradientUnits="userSpaceOnUse"
       spreadMethod="pad"
       gradientTransform="matrix(0.960363,0,0,0.960363,3.8000346,-1.1561084)" />
    <linearGradient
       id="linearGradient1787">
      <stop
         offset="0.0000000"
         style="stop-color:#ffcbcb;stop-opacity:1.0000000;"
         id="stop1789" />
      <stop
         offset="1.0000000"
         style="stop-color:#ea0800;stop-opacity:1.0000000;"
         id="stop1788" />
    </linearGradient>
    <linearGradient
       id="linearGradient1828">
      <stop
         style="stop-color:#ffc93f;stop-opacity:1.0000000;"
         offset="0.0000000"
         id="stop1829" />
      <stop
         style="stop-color:#f1e36c;stop-opacity:1.0000000;"
         offset="1.0000000"
         id="stop1830" />
    </linearGradient>
    <linearGradient
       inkscape:collect="always"
       xlink:href="#linearGradient1828"
       id="linearGradient54"
       gradientUnits="userSpaceOnUse"
       gradientTransform="matrix(0.99999,0,0,1.00001,-0.701263,-7.713892)"
       x1="32.051327"
       y1="14.657825"
       x2="32.051327"
       y2="75.934349" />
  </defs>
  <sodipodi:namedview
     id="base"
     inkscape:zoom="5.0416667"
     inkscape:cx="-15.074379"
     inkscape:cy="31.239669"
     inkscape:window-width="1920"
     inkscape:window-height="1023"
     inkscape:window-x="0"
     inkscape:window-y="0"
     inkscape:current-layer="svg604"
     width="90px"
     height="90px"
     showgrid="false"
     inkscape:window-maximized="1" />
  <path
     sodipodi:nodetypes="ccccccccc"
     id="path2482"
     d="M 19.416214,89.01584 C 15.939429,88.964894 10.110646,86.840201 9.6017107,81.138563 7.8069683,75.377879 1.5678923,20.929626 4.5785153,17.13717 c 1.555623,-2.985761 4.943105,-5.177574 10.970045,-5.937399 4.931467,-0.755668 49.788686,-6.66132 53.096372,-5.744694 3.307779,0.916686 5.913399,1.691823 6.151347,6.289011 -0.244644,2.500159 8.087052,53.495894 9.365247,56.503073 0.609888,3.522348 -0.391272,8.444622 -5.491791,10.066068 -5.100426,1.621422 -55.227159,10.014423 -59.253522,10.702611 z"
     style="fill:#000000;fill-opacity:0.29411765;fill-rule:evenodd;stroke:none" />
  <path
     style="fill:#3d4e67;fill-opacity:1;fill-rule:evenodd;stroke:none"
     d="M 23.184808,84.453857 C 19.708023,84.402911 13.87924,82.278218 13.370305,76.57658 11.575563,70.815896 5.3364866,16.367643 8.3471096,12.575187 c 1.555623,-2.985761 4.943105,-5.177574 10.970045,-5.937399 4.931467,-0.755668 49.788686,-6.66132 53.096372,-5.744694 3.307779,0.916686 5.913399,1.691823 6.151347,6.289011 -0.244644,2.500159 8.087052,53.495894 9.365247,56.503073 0.609888,3.522348 -0.391272,8.444622 -5.491791,10.066068 -5.100426,1.621422 -55.227159,10.014423 -59.253522,10.702611 z"
     id="path609"
     sodipodi:nodetypes="ccccccccc" />
  <path
     style="fill:#ffffff;fill-opacity:1;fill-rule:evenodd;stroke:none"
     d="m 27.2015,78.414641 c -3.370771,0.445326 -8.052946,1.376295 -8.612214,-3.23562 -2.328863,-10.917573 -7.66852,-54.186478 -3.863764,-61.218126 0.849788,-1.653477 5.463624,-3.897846 15.944281,-4.834777 11.910182,-1.198786 36.348053,-3.021781 38.919716,-2.903362 2.57154,0.11845 3.358248,-0.172932 3.917595,4.439098 -0.227157,4.903329 7.530696,43.260487 7.989,50.051731 0.356604,4.821003 0.970305,6.869343 -2.176278,8.034831"
     id="path608"
     sodipodi:nodetypes="cccccccs" />
  <path
     style="fill:url(#linearGradient615);fill-opacity:1;fill-rule:evenodd;stroke:none"
     d="m 15.568817,20.490043 c 0,0 0.303158,-6.543044 9.029473,-7.846017 8.726287,-1.302935 43.2862,-5.743978 44.109667,-3.476689 0.823404,2.267274 1.842867,17.001758 2.097132,18.193742 0.254268,1.191936 -29.001252,11.385039 -37.03467,21.112812 -8.033445,9.727764 -13.65963,17.599314 -13.65963,17.599314 0,0 -4.600179,-34.307907 -4.541972,-45.583162 z"
     id="path636" />
  <g
     transform="matrix(0.5370284,0,0,0.5370284,23.801195,17.801363)"
     id="g2702">
    <path
       inkscape:connector-curvature="0"
       id="path1858"
       d="M 45.318751,7.3776937 C 42.43159,6.5443746 39.448495,8.191152 38.615176,11.078313 l -1.24006,4.296374 c -1.2128,0.03795 -2.404539,0.150626 -3.580232,0.375506 l -2.14768,-3.890466 C 30.194919,9.228949 26.892861,8.275879 24.262084,9.728164 l -2.849737,1.592682 c -2.630777,1.452285 -3.577146,4.731119 -2.12486,7.361897 l 2.13116,3.86054 c -0.828783,0.872905 -1.582278,1.809993 -2.271989,2.816087 l -4.20348,-1.213248 c -2.887162,-0.833319 -5.9001825,0.829979 -6.7335018,3.717139 l -0.904909,3.135193 c -0.8333197,2.887162 0.8366808,5.876959 3.7238428,6.710278 l 4.110585,1.186436 c 0.0322,1.256992 0.155548,2.492182 0.388438,3.709757 l -3.740834,2.065077 c -2.6307765,1.452285 -3.5771465,4.731119 -2.1248593,7.361896 l 1.5926823,2.849737 c 1.452284,2.630779 4.73112,3.577146 7.361897,2.12486 l 3.68098,-2.032036 c 0.917884,0.872368 1.893525,1.670657 2.958543,2.388582 l -1.159624,4.01769 c -0.833319,2.887161 0.813458,5.870257 3.700619,6.703575 l 3.135193,0.904909 c 2.887162,0.83332 5.870258,-0.813458 6.703575,-3.700618 l 1.166327,-4.040915 c 1.273467,-0.04136 2.514559,-0.181052 3.746386,-0.428183 l 2.032036,3.68098 c 1.452288,2.63078 4.731117,3.577144 7.361897,2.12486 l 2.866257,-1.562756 c 2.630778,-1.452288 3.58385,-4.754342 2.131563,-7.38512 l -2.048556,-3.710906 c 0.845879,-0.906211 1.608449,-1.885698 2.305504,-2.932206 l 4.110586,1.186436 c 2.88716,0.833319 5.870252,-0.813458 6.703575,-3.700619 l 0.904909,-3.135193 c 0.833319,-2.887161 -0.806754,-5.893479 -3.693916,-6.726798 l -4.203481,-1.213248 c -0.04767,-1.222783 -0.207661,-2.416436 -0.445177,-3.600342 l 3.86054,-2.131159 c 2.630779,-1.452285 3.577146,-4.73112 2.12486,-7.361897 L 64.99636,21.485274 c -1.452288,-2.630778 -4.731119,-3.577146 -7.361897,-2.12486 l -3.920393,2.164201 c -0.871879,-0.814654 -1.797442,-1.564861 -2.799567,-2.242063 l 1.24006,-4.296374 C 52.987882,12.099017 51.341105,9.115923 48.453944,8.282603 Z M 41.157054,27.636569 c 5.897315,1.702136 9.301622,7.868955 7.599484,13.766267 -1.702139,5.897315 -7.868956,9.301625 -13.766269,7.599487 -5.897314,-1.702138 -9.301624,-7.868957 -7.599485,-13.766272 1.702138,-5.897312 7.868955,-9.301621 13.76627,-7.599482 z"
       style="fill:#000000;fill-opacity:0.34444442;stroke:none;stroke-width:3.86746287;stroke-linecap:round;stroke-linejoin:round;stroke-miterlimit:4;stroke-opacity:1" />
    <path
       inkscape:connector-curvature="0"
       id="path1856"
       d="m 40.855941,2.9148838 c -2.887161,-0.8333191 -5.870256,0.813458 -6.703575,3.700619 l -1.24006,4.2963742 c -1.2128,0.03795 -2.404539,0.150626 -3.580232,0.375506 l -2.14768,-3.8904662 c -1.452285,-2.630778 -4.754343,-3.583848 -7.38512,-2.131563 l -2.849737,1.592682 c -2.630777,1.452285 -3.577146,4.7311192 -2.12486,7.3618972 l 2.13116,3.86054 c -0.828783,0.872905 -1.582278,1.809993 -2.271989,2.816087 l -4.20348,-1.213248 C 7.5932064,18.849993 4.5801856,20.513291 3.7468663,23.400451 l -0.904909,3.135193 c -0.8333197,2.887162 0.8366808,5.876959 3.7238423,6.710278 l 4.1105854,1.186436 c 0.0322,1.256992 0.155548,2.492182 0.388438,3.709757 l -3.7408335,2.065077 c -2.6307769,1.452285 -3.5771469,4.731119 -2.1248597,7.361896 l 1.5926818,2.849737 c 1.4522846,2.630779 4.7311204,3.577146 7.3618974,2.12486 l 3.68098,-2.032036 c 0.917884,0.872368 1.893525,1.670657 2.958543,2.388582 l -1.159624,4.01769 c -0.833319,2.887161 0.813458,5.870257 3.700619,6.703575 l 3.135193,0.904909 c 2.887162,0.83332 5.870258,-0.813458 6.703575,-3.700618 l 1.166327,-4.040915 c 1.273467,-0.04136 2.514559,-0.181052 3.746386,-0.428183 l 2.032036,3.68098 c 1.452288,2.63078 4.731117,3.577144 7.361897,2.12486 l 2.866257,-1.562756 c 2.630778,-1.452288 3.58385,-4.754342 2.131563,-7.38512 l -2.048556,-3.710906 c 0.845879,-0.906211 1.608449,-1.885698 2.305504,-2.932206 l 4.110586,1.186436 c 2.88716,0.833319 5.870252,-0.813458 6.703575,-3.700619 l 0.904909,-3.135193 c 0.833319,-2.887161 -0.806754,-5.893479 -3.693916,-6.726798 l -4.203481,-1.213248 c -0.04767,-1.222783 -0.207661,-2.416436 -0.445177,-3.600342 l 3.86054,-2.131159 c 2.630779,-1.452285 3.577146,-4.73112 2.12486,-7.361897 L 60.53355,17.022464 c -1.452288,-2.630778 -4.731119,-3.577146 -7.361897,-2.12486 l -3.920393,2.164201 c -0.871879,-0.814654 -1.797442,-1.564861 -2.799567,-2.242063 l 1.24006,-4.296374 C 48.525072,7.6362068 46.878295,4.6531128 43.991134,3.8197928 Z M 36.694244,23.173759 c 5.897315,1.702136 9.301622,7.868955 7.599484,13.766267 -1.702139,5.897315 -7.868956,9.301625 -13.766269,7.599487 -5.897314,-1.702138 -9.301624,-7.868957 -7.599485,-13.766272 1.702138,-5.897312 7.868955,-9.301621 13.76627,-7.599482 z"
       style="fill:url(#linearGradient54);fill-opacity:1;stroke:#593a28;stroke-width:3.86746287;stroke-linecap:round;stroke-linejoin:round;stroke-miterlimit:4;stroke-opacity:1" />
  </g>
  <use
     x="0"
     y="0"
     xlink:href="#g2702"
     id="use2706"
     transform="matrix(0.5086008,0,0,0.5086008,39.537123,36.043769)"
     width="90"
     height="90" />
</svg>
