<?xml version="1.0" encoding="UTF-8" standalone="no"?>
<!-- Created with Sodipodi ("http://www.sodipodi.com/") -->

<svg
   xmlns:dc="http://purl.org/dc/elements/1.1/"
   xmlns:cc="http://creativecommons.org/ns#"
   xmlns:rdf="http://www.w3.org/1999/02/22-rdf-syntax-ns#"
   xmlns:svg="http://www.w3.org/2000/svg"
   xmlns="http://www.w3.org/2000/svg"
   xmlns:sodipodi="http://sodipodi.sourceforge.net/DTD/sodipodi-0.dtd"
   xmlns:inkscape="http://www.inkscape.org/namespaces/inkscape"
   version="1.0"
   x="0"
   y="0"
   width="90"
   height="90"
   id="svg1"
   sodipodi:version="0.32"
   inkscape:version="0.92.3 (2405546, 2018-03-11)"
   sodipodi:docname="tools-check-spelling.svg"
   inkscape:output_extension="org.inkscape.output.svg.inkscape">
  <metadata
     id="metadata10">
    <rdf:RDF>
      <cc:Work
         rdf:about="">
        <dc:format>image/svg+xml</dc:format>
        <dc:type
           rdf:resource="http://purl.org/dc/dcmitype/StillImage" />
      </cc:Work>
    </rdf:RDF>
  </metadata>
  <sodipodi:namedview
     id="base"
     pagecolor="#ffffff"
     bordercolor="#666666"
     borderopacity="1.0"
     inkscape:pageopacity="0.0"
     inkscape:pageshadow="2"
     inkscape:zoom="5.3666667"
     inkscape:cx="45"
     inkscape:cy="45"
     inkscape:window-width="1014"
     inkscape:window-height="695"
     inkscape:window-x="51"
     inkscape:window-y="34"
     inkscape:current-layer="svg1"
     width="90px"
     height="90px"
     showgrid="false"
     inkscape:window-maximized="0" />
  <defs
     id="defs3" />
  <path
     d="M 10.077416,47.9607 C 11.201688,64.073364 25.228093,85.319847 33.1046,84.664641 C 44.685962,83.954256 53.167193,76.380744 67.019174,59.153298 C 76.203731,47.415978 79.170056,42.94083 86.624009,23.172618 C 88.681556,17.524205 80.257763,8.594985 73.874666,17.282984 C 53.649221,45.064689 43.050983,52.718868 38.451962,53.925702 C 32.699381,55.295685 32.257535,38.978508 25.90968,32.668641 C 24.488767,31.256253 9.021515,33.080907 10.077416,47.9607 z "
     style="font-size:12px;fill:#0d3c07;fill-rule:evenodd;stroke-width:1"
     id="path574" />
  <path
     d="M 14.105473,49.152564 C 16.066612,59.738832 28.220574,82.349562 33.371411,81.24282 C 38.730776,80.071296 45.210947,74.440728 56.984741,61.129092 C 72.751517,43.588965 78.551987,30.990891 81.492413,26.291297 C 87.907865,15.784694 79.185506,18.741065 71.92754,29.179229 C 66.167846,37.663389 42.165929,68.093136 36.351686,61.193499 C 33.556643,57.755052 28.853364,42.620472 24.622062,38.414505 C 23.674917,37.473033 12.220965,39.232968 14.105473,49.152564 z "
     style="font-size:12px;fill:#2aaf18;fill-rule:evenodd;stroke-width:1"
     id="path584" />
  <path
     d="M 16.497117,47.821143 C 17.243539,46.216281 18.957783,45.704772 20.265202,46.565106 C 22.145349,47.710488 22.089725,50.873022 20.683879,51.728781 C 19.436783,52.364106 16.039832,50.14413 16.497117,47.821143 z "
     style="font-size:12px;fill:#ffffff;fill-rule:evenodd;stroke:#ffffff;stroke-width:1.30719995"
     id="path587" />
  <path
     d="M 28.220051,71.127447 C 30.416606,74.782248 39.154481,73.283358 41.338577,71.127447 C 46.480001,65.91279 39.42464,76.633674 33.1046,76.570236 C 28.570146,76.523685 24.858482,65.766396 28.220051,71.127447 z "
     style="font-size:12px;fill:#208c11;fill-rule:evenodd;stroke:#208c11;stroke-width:1.30719995"
     id="path589" />
</svg>
