<?xml version="1.0" encoding="UTF-8" standalone="no"?>
<!-- Created with Sodipodi ("http://www.sodipodi.com/") -->

<svg
   xmlns:dc="http://purl.org/dc/elements/1.1/"
   xmlns:cc="http://creativecommons.org/ns#"
   xmlns:rdf="http://www.w3.org/1999/02/22-rdf-syntax-ns#"
   xmlns:svg="http://www.w3.org/2000/svg"
   xmlns="http://www.w3.org/2000/svg"
   xmlns:xlink="http://www.w3.org/1999/xlink"
   xmlns:sodipodi="http://sodipodi.sourceforge.net/DTD/sodipodi-0.dtd"
   xmlns:inkscape="http://www.inkscape.org/namespaces/inkscape"
   id="svg604"
   sodipodi:version="0.32"
   width="90"
   height="90"
   sodipodi:docname="basico-sap-knowledge-base-article.svg"
   inkscape:version="0.92.3 (2405546, 2018-03-11)"
   inkscape:output_extension="org.inkscape.output.svg.inkscape"
   version="1.0">
  <metadata
     id="metadata11">
    <rdf:RDF>
      <cc:Work
         rdf:about="">
        <dc:format>image/svg+xml</dc:format>
        <dc:type
           rdf:resource="http://purl.org/dc/dcmitype/StillImage" />
        <dc:title />
      </cc:Work>
    </rdf:RDF>
  </metadata>
  <defs
     id="defs606">
    <linearGradient
       id="linearGradient612">
      <stop
         style="stop-color:#7fa8e3;stop-opacity:0.741176;"
         offset="0.000000"
         id="stop613" />
      <stop
         style="stop-color:#ffffff;stop-opacity:0;"
         offset="1.000000"
         id="stop614" />
    </linearGradient>
    <linearGradient
       xlink:href="#linearGradient612"
       id="linearGradient615"
       x1="50.643887"
       y1="5.3679295"
       x2="35.752094"
       y2="68.044357"
       gradientUnits="userSpaceOnUse"
       spreadMethod="pad"
       gradientTransform="matrix(0.960363,0,0,0.960363,3.8000346,-1.1561084)" />
    <radialGradient
       gradientTransform="matrix(0.9868355,1.453205e-8,0,0.9337914,-113.65072,-66.885477)"
       inkscape:collect="always"
       xlink:href="#linearGradient1787"
       id="radialGradient2925"
       gradientUnits="userSpaceOnUse"
       spreadMethod="reflect"
       cx="55.821728"
       cy="67.852768"
       fx="55.988865"
       fy="67.684441"
       r="8.0222836" />
    <linearGradient
       id="linearGradient1787">
      <stop
         offset="0.0000000"
         style="stop-color:#ffcbcb;stop-opacity:1.0000000;"
         id="stop1789" />
      <stop
         offset="1.0000000"
         style="stop-color:#ea0800;stop-opacity:1.0000000;"
         id="stop1788" />
    </linearGradient>
    <linearGradient
       inkscape:collect="always"
       xlink:href="#linearGradient1787"
       id="linearGradient2919"
       gradientUnits="userSpaceOnUse"
       gradientTransform="matrix(-0.71892792,-0.69392235,-0.64048301,0.66356277,128.22355,30.803825)"
       x1="32.572178"
       y1="41.439709"
       x2="65.530708"
       y2="86.700996" />
    <linearGradient
       inkscape:collect="always"
       xlink:href="#linearGradient1787"
       id="linearGradient3743"
       gradientUnits="userSpaceOnUse"
       gradientTransform="matrix(0.5730774,-0.08390949,0.08390949,0.5730774,17.618837,19.767217)"
       x1="51.095966"
       y1="62.207943"
       x2="75.038589"
       y2="83.034393" />
    <linearGradient
       inkscape:collect="always"
       xlink:href="#linearGradient1787"
       id="linearGradient148"
       gradientUnits="userSpaceOnUse"
       gradientTransform="matrix(0.5730774,-0.08390949,0.08390949,0.5730774,17.618837,19.767217)"
       x1="51.095966"
       y1="62.207943"
       x2="75.038589"
       y2="83.034393" />
  </defs>
  <sodipodi:namedview
     id="base"
     inkscape:zoom="5.0416667"
     inkscape:cx="94.879167"
     inkscape:cy="39.173553"
     inkscape:window-width="1920"
     inkscape:window-height="1023"
     inkscape:window-x="0"
     inkscape:window-y="0"
     inkscape:current-layer="svg604"
     width="90px"
     height="90px"
     showgrid="false"
     inkscape:window-maximized="1" />
  <path
     sodipodi:nodetypes="ccccccccc"
     id="path2482"
     d="M 19.416214,89.01584 C 15.939429,88.964894 10.110646,86.840201 9.6017107,81.138563 7.8069683,75.377879 1.5678923,20.929626 4.5785153,17.13717 c 1.555623,-2.985761 4.943105,-5.177574 10.970045,-5.937399 4.931467,-0.755668 49.788686,-6.66132 53.096372,-5.744694 3.307779,0.916686 5.913399,1.691823 6.151347,6.289011 -0.244644,2.500159 8.087052,53.495894 9.365247,56.503073 0.609888,3.522348 -0.391272,8.444622 -5.491791,10.066068 -5.100426,1.621422 -55.227159,10.014423 -59.253522,10.702611 z"
     style="fill:#000000;fill-opacity:0.29411765;fill-rule:evenodd;stroke:none" />
  <path
     style="fill:#3d4e67;fill-opacity:1;fill-rule:evenodd;stroke:none"
     d="M 23.184808,84.453857 C 19.708023,84.402911 13.87924,82.278218 13.370305,76.57658 11.575563,70.815896 5.3364866,16.367643 8.3471096,12.575187 c 1.555623,-2.985761 4.943105,-5.177574 10.970045,-5.937399 4.931467,-0.755668 49.788686,-6.66132 53.096372,-5.744694 3.307779,0.916686 5.913399,1.691823 6.151347,6.289011 -0.244644,2.500159 8.087052,53.495894 9.365247,56.503073 0.609888,3.522348 -0.391272,8.444622 -5.491791,10.066068 -5.100426,1.621422 -55.227159,10.014423 -59.253522,10.702611 z"
     id="path609"
     sodipodi:nodetypes="ccccccccc" />
  <path
     style="fill:#ffffff;fill-opacity:1;fill-rule:evenodd;stroke:none"
     d="m 27.2015,78.414641 c -3.370771,0.445326 -8.052946,1.376295 -8.612214,-3.23562 -2.328863,-10.917573 -7.66852,-54.186478 -3.863764,-61.218126 0.849788,-1.653477 5.463624,-3.897846 15.944281,-4.834777 11.910182,-1.198786 36.348053,-3.021781 38.919716,-2.903362 2.57154,0.11845 3.358248,-0.172932 3.917595,4.439098 -0.227157,4.903329 7.530696,43.260487 7.989,50.051731 0.356604,4.821003 0.970305,6.869343 -2.176278,8.034831"
     id="path608"
     sodipodi:nodetypes="cccccccs" />
  <path
     style="fill:url(#linearGradient615);fill-opacity:1;fill-rule:evenodd;stroke:none"
     d="m 15.568817,20.490043 c 0,0 0.303158,-6.543044 9.029473,-7.846017 8.726287,-1.302935 43.2862,-5.743978 44.109667,-3.476689 0.823404,2.267274 1.842867,17.001758 2.097132,18.193742 0.254268,1.191936 -29.001252,11.385039 -37.03467,21.112812 -8.033445,9.727764 -13.65963,17.599314 -13.65963,17.599314 0,0 -4.600179,-34.307907 -4.541972,-45.583162 z"
     id="path636" />
  <path
     inkscape:connector-curvature="0"
     style="color:#000000;display:inline;overflow:visible;visibility:visible;opacity:1;fill:#000000;fill-opacity:0.29411765;fill-rule:evenodd;stroke:none;stroke-width:3.30137086;marker:none;enable-background:accumulate"
     d="m 44.880796,18.709467 c -0.204121,0.03054 -0.403185,0.06438 -0.606274,0.107067 -5.118359,1.117778 -9.487492,4.480186 -12.923018,8.312881 -1.174522,1.401106 -2.71974,3.726904 -1.133091,5.379299 0.579298,1.636587 -0.01021,3.696239 -0.357328,5.430346 -0.66083,2.281769 -1.953117,4.517818 -1.447468,6.9802 0.420632,3.54276 3.719942,5.775882 6.878391,6.748937 3.111616,0.988065 5.253902,3.621052 7.920496,5.370748 1.862521,1.472544 4.42701,2.969362 6.807252,1.765474 2.247402,-1.095667 3.252976,-3.915878 5.864163,-4.425686 1.209814,-0.360235 2.519703,-0.709523 3.738057,-1.205857 0.110941,0.516677 0.196357,1.202912 0.219872,2.126334 -0.0034,-0.132614 -0.14508,0.629587 -0.53497,1.468571 -0.389892,0.838982 -0.950232,1.883431 -1.566586,2.918387 -1.232704,2.069919 -2.651313,4.145445 -3.309692,5.130926 l -2.520933,3.771538 4.352196,-1.259195 c 2.959861,-0.857487 6.022255,-2.693315 8.801573,-5.477726 0.462149,0.847434 1.255603,2.154387 2.806702,3.302448 l 1.560344,1.16177 0.879587,-1.738537 c 2.495122,-4.865433 3.002493,-8.11145 2.063829,-12.265548 C 71.562264,48.71992 70.024703,46.507233 68.357826,44.997464 67.941105,44.620021 67.534661,44.283069 67.12815,43.970199 66.924829,39.660141 66.782804,35.305291 65.867437,31.112165 64.761119,27.393629 60.94796,25.702154 57.68082,24.298682 54.57896,22.955571 51.407079,21.432524 49.191597,18.791695 47.765074,18.567053 46.309642,18.495676 44.880796,18.709461 Z"
     id="path3740" />
  <path
     inkscape:connector-curvature="0"
     sodipodi:nodetypes="cscccscc"
     id="path3726"
     d="m 52.353715,46.96148 c 3.246265,2.746322 5.590886,1.44151 5.7456,7.516961 0.05095,2.001077 -4.390532,8.534292 -5.690614,10.480288 3.081531,-0.892742 6.408493,-2.929125 9.30684,-6.288445 1.380704,0.409522 1.127027,2.437287 3.745748,4.375551 2.417405,-4.713889 2.799726,-7.256141 1.917617,-11.159941 -1.499649,-6.636763 -5.171483,-7.152688 -8.168529,-10.208447 -2.565858,3.561554 -6.375648,3.711105 -6.856662,5.284033 z"
     style="color:#000000;display:inline;overflow:visible;visibility:visible;opacity:1;fill:url(#linearGradient148);fill-opacity:1;fill-rule:evenodd;stroke:#593a28;stroke-width:3.30137086;stroke-linecap:butt;stroke-linejoin:miter;stroke-miterlimit:4;stroke-dasharray:none;stroke-dashoffset:0;stroke-opacity:1;marker:none;marker-start:none;marker-mid:none;marker-end:none;enable-background:accumulate" />
  <path
     inkscape:connector-curvature="0"
     style="color:#000000;display:inline;overflow:visible;visibility:visible;opacity:1;fill:url(#linearGradient3743);fill-opacity:1;fill-rule:evenodd;stroke:#593a28;stroke-width:0;stroke-linecap:butt;stroke-linejoin:miter;stroke-miterlimit:4;stroke-dasharray:none;stroke-dashoffset:0;stroke-opacity:1;marker:none;marker-start:none;marker-mid:none;marker-end:none;enable-background:accumulate"
     d="m 52.353715,46.96148 c 3.246265,2.746322 5.590886,1.44151 5.7456,7.516961 0.05095,2.001077 -4.390532,8.534292 -5.690614,10.480288 3.081531,-0.892742 6.408493,-2.929125 9.30684,-6.288445 1.380704,0.409522 1.127027,2.437287 3.745748,4.375551 2.417405,-4.713889 2.799726,-7.256141 1.917617,-11.159941 -1.499649,-6.636763 -5.171483,-7.152688 -8.168529,-10.208447 -2.565858,3.561554 -6.375648,3.711105 -6.856662,5.284033 z"
     id="path3714"
     sodipodi:nodetypes="cscccscc" />
  <path
     inkscape:connector-curvature="0"
     style="fill:none;stroke:#593a28;stroke-width:4.79973698;stroke-linecap:butt;stroke-linejoin:miter;stroke-miterlimit:4;stroke-opacity:1"
     d="m 61.150432,41.872134 c 0,0 -5.356738,1.987463 -2.833832,5.073333 -1.269764,2.027982 -0.913756,2.371607 -6.626502,4.015445 -5.712743,1.643836 -4.784757,7.094559 -9.707154,3.6448 -4.922398,-3.449757 -6.021274,-5.161124 -9.132784,-6.212259 -3.111509,-1.051134 -7.291034,-3.133146 -5.138364,-8.213234 2.152671,-5.080085 1.580689,-10.187179 1.580689,-10.187179 -4.025261,1.320466 6.643126,-11.157278 15.203938,-10.052125 6.082977,6.522119 15.913548,5.599297 15.896922,12.741133 0.479419,3.06561 0.757087,9.190086 0.757087,9.190086 z"
     id="path1797"
     sodipodi:nodetypes="cccccccccc" />
  <path
     inkscape:connector-curvature="0"
     style="fill:#593a28;fill-opacity:1;stroke:none;stroke-width:0.57918781"
     d="m 40.745955,17.705136 c -5.118359,1.11778 -9.48019,4.47909 -12.915718,8.311785 -1.174522,1.401106 -2.732714,3.727238 -1.146065,5.379634 0.579297,1.636588 -0.01189,3.695473 -0.359071,5.42958 -0.66083,2.281769 -1.949389,4.525796 -1.44374,6.988177 0.42063,3.542761 3.727083,5.774942 6.885534,6.747996 3.111616,0.988066 5.258363,3.618156 7.924959,5.367851 1.862518,1.472544 4.422525,2.970486 6.802765,1.766591 2.247401,-1.09566 3.249546,-3.919607 5.860732,-4.429415 2.785255,-0.829337 6.123128,-1.528452 7.573326,-4.357677 0.308049,-0.752134 1.136685,-1.50501 1.26342,-2.229224 -0.451002,-0.681733 -1.761472,-1.495468 -0.336595,-1.967812 0.849005,-0.557127 1.828863,-0.836412 2.766844,-1.198614 -0.22295,-4.522299 -0.325386,-9.11193 -1.287081,-13.517281 -1.106319,-3.718535 -4.919679,-5.40205 -8.18682,-6.805524 -3.101861,-1.343109 -6.269934,-2.870071 -8.485416,-5.5109 -1.630311,-0.256733 -3.292362,-0.316652 -4.917074,0.02483 z"
     id="path2939" />
  <path
     inkscape:connector-curvature="0"
     style="fill:url(#linearGradient2919);fill-opacity:1;fill-rule:evenodd;stroke:none;stroke-width:0.57918781"
     d="m 61.150432,41.872134 c 0,0 -5.356738,1.987463 -2.833832,5.073333 -1.269764,2.027982 -0.913756,2.371607 -6.626502,4.015445 -5.712743,1.643836 -4.784757,7.094559 -9.707154,3.6448 -4.922398,-3.449757 -6.021274,-5.161124 -9.132784,-6.212259 -3.111509,-1.051134 -7.291034,-3.133146 -5.138364,-8.213234 2.152671,-5.080085 1.580689,-10.187179 1.580689,-10.187179 -4.025261,1.320466 6.643126,-11.157278 15.203938,-10.052125 6.082977,6.522119 13.45235,3.87442 15.896922,12.741133 0.479419,3.06561 0.757087,9.190086 0.757087,9.190086 z"
     id="path1790"
     sodipodi:nodetypes="cccccccccc" />
  <ellipse
     ry="11.002613"
     rx="11.627616"
     cy="-3.2107837"
     cx="-57.98661"
     style="fill:url(#radialGradient2925);fill-opacity:1;fill-rule:nonzero;stroke:none;stroke-width:0.95994717"
     id="path1161"
     transform="matrix(-0.71950892,-0.69448319,-0.69448318,0.71950894,0,0)" />
  <path
     inkscape:connector-curvature="0"
     style="fill:#593a28;fill-opacity:1;stroke:none;stroke-width:0.57918781"
     d="M 40.745955,17.705136"
     id="path2937" />
  <path
     inkscape:connector-curvature="0"
     style="fill:#593a28;fill-opacity:1;stroke:none;stroke-width:0.57918781"
     d="M 40.745955,17.705136"
     id="path2935" />
  <path
     inkscape:connector-curvature="0"
     style="color:#000000;display:inline;overflow:visible;visibility:visible;opacity:1;fill:#593a28;fill-opacity:1;fill-rule:evenodd;stroke:none;stroke-width:3.30137086;marker:none;enable-background:accumulate"
     d="M 59.009823,39.122318"
     id="path3738" />
  <path
     inkscape:connector-curvature="0"
     style="color:#000000;display:inline;overflow:visible;visibility:visible;opacity:1;fill:#593a28;fill-opacity:1;fill-rule:evenodd;stroke:none;stroke-width:3.30137086;marker:none;enable-background:accumulate"
     d="M 59.009823,39.122318"
     id="path3736" />
</svg>
